<?xml version="1.0" encoding="UTF-8" standalone="no"?>
<!-- Created with Inkscape (http://www.inkscape.org/) -->

<svg xmlns:dc="http://purl.org/dc/elements/1.1/" xmlns:cc="http://creativecommons.org/ns#"
     xmlns:svg="http://www.w3.org/2000/svg"
     xmlns="http://www.w3.org/2000/svg" xmlns:sodipodi="http://sodipodi.sourceforge.net/DTD/sodipodi-0.dtd"
     xmlns:inkscape="http://www.inkscape.org/namespaces/inkscape" width="906.64526" height="266.90707" id="svg10249"
     version="1.1" inkscape:version="0.48.1 " sodipodi:docname="Nouveau document 18"
     xmlns:xsi="http://www.w3.org/2001/XMLSchema-instance" xsi:schemaLocation="http://purl.org/dc/elements/1.1/ ">
  <xmlns:rdf>http://www.w3.org/1999/02/22-rdf-syntax-ns#</xmlns:rdf>
  <defs id="defs10251"/>
  <sodipodi:namedview inkscape:document-units="mm" pagecolor="#ffffff" bordercolor="#666666" borderopacity="1.0"
                      inkscape:pageopacity="0.0" inkscape:pageshadow="2" inkscape:zoom="0.43415836"
                      inkscape:cx="402.04539" inkscape:cy="77.965955" inkscape:current-layer="layer1"
                      id="namedview10253" showgrid="false" units="mm" fit-margin-top="0" fit-margin-left="0"
                      fit-margin-right="0" fit-margin-bottom="0" inkscape:window-width="1366"
                      inkscape:window-height="716" inkscape:window-x="-8" inkscape:window-y="-8"
                      inkscape:window-maximized="1"/>
  <metadata id="metadata10255">
    <rdf:RDF>
      <cc:Work rdf:about="">
        <dc:format>image/svg+xml</dc:format>
        <dc:type rdf:resource="http://purl.org/dc/dcmitype/StillImage"/>
        <dc:title></dc:title>
      </cc:Work>
    </rdf:RDF>
  </metadata>
  <g inkscape:label="Layer 1" inkscape:groupmode="layer" id="layer1" transform="translate(-87.954605,-175.15337)">
    <g id="g10277" transform="matrix(7.9794078,0,0,7.9794078,2197.7416,-42.209113)">
      <path inkscape:connector-curvature="0" id="path10194"
            style="fill:#37378d;fill-opacity:1;fill-rule:evenodd;stroke:none"
            d="M -256.83058,50.874044 C -258.54558,50.844042 -259.93683,50.190298 -260.94183,48.816539 -261.93683,47.474043 -262.31933,45.785296 -262.07808,43.786547 -261.83808,41.815293 -261.05183,40.152791 -259.75808,38.795292 -258.46183,37.470296 -256.94433,36.817791 -255.21558,36.817791 L -254.24808,36.817791 C -252.96558,36.817791 -251.87933,37.264045 -251.05058,38.116543 -250.24933,38.991548 -249.92308,40.116541 -250.07683,41.410296 L -251.35308,51.965296 C -251.50808,53.239042 -252.10808,54.305298 -253.08808,55.132792 -254.08308,55.952799 -255.23308,56.361544 -256.53183,56.361544 L -260.10308,56.361544 -259.82183,54.264042 C -259.76558,53.820297 -259.38933,53.446543 -258.92933,53.446543 L -256.29683,53.446543 C -255.85058,53.446543 -255.48183,53.257792 -255.19058,52.977793 -254.86683,52.669041 -254.61058,51.291544 -254.56558,50.874044 L -256.83058,50.874044 z M -254.14933,47.920296 -253.32808,41.291544 C -253.27183,40.814049 -253.40058,40.459043 -253.60808,40.209048 -253.82683,39.930298 -254.12558,39.729044 -254.50183,39.717791 L -255.47683,39.717791 C -256.17433,39.696543 -256.87308,40.051548 -257.53058,40.800297 -258.23308,41.589043 -258.66933,42.616541 -258.82308,43.905298 -258.97933,45.194046 -258.79558,46.187794 -258.31183,46.910298 -257.86558,47.590296 -257.29558,47.916548 -256.56058,47.916548 L -254.14933,47.920296 z"/>
      <path inkscape:connector-curvature="0" id="path10196"
            style="fill:#37378d;fill-opacity:1;fill-rule:evenodd;stroke:none"
            d="M -208.41858,47.916796 C -207.67732,47.916796 -206.98482,47.574293 -206.33108,46.851799 -205.64232,46.091797 -205.20982,45.070546 -205.05607,43.786794 -204.89732,42.494299 -205.09107,41.494296 -205.57607,40.738041 -206.02233,40.031798 -206.60232,39.691793 -207.29482,39.716799 L -208.26482,39.716799 C -208.65733,39.729292 -209.03608,39.944298 -209.36483,40.256798 -209.66608,40.544293 -209.88733,40.934298 -209.94358,41.410543 L -210.71357,47.916796 -208.41858,47.916796 z M -211.63108,55.551798 C -211.68607,56.001799 -212.08732,56.360543 -212.53982,56.360543 L -215.01358,56.360543 -213.19732,41.291792 C -213.04357,39.996798 -212.43858,38.901798 -211.45483,38.069298 -210.46358,37.256796 -209.31358,36.818048 -208.03857,36.818048 L -207.07358,36.818048 C -205.33232,36.818048 -203.93108,37.481797 -202.92608,38.861792 -201.94607,40.250542 -201.56357,41.936801 -201.80108,43.905547 -202.04108,45.908043 -202.83107,47.564299 -204.12107,48.868048 -205.41358,50.198042 -206.92732,50.844299 -208.64358,50.874293 L -211.06858,50.874293 -211.63108,55.551798 z"/>
      <path inkscape:connector-curvature="0" id="path10198"
            style="fill:#37378d;fill-opacity:1;fill-rule:evenodd;stroke:none"
            d="M -190.6097,41.444791 C -190.47345,40.307286 -191.25345,39.688542 -192.2222,39.688542 L -193.4697,39.688542 C -194.1122,39.688542 -195.02345,40.052292 -195.68345,40.801041 -196.2072,41.393539 -196.60095,42.274792 -196.8222,43.147289 L -195.30095,43.147289 -192.6372,43.143542 C -191.6672,43.143542 -190.74345,42.508538 -190.6097,41.444791 M -194.98345,50.873539 C -196.8597,50.873539 -198.0897,50.191042 -199.0922,48.817293 -200.09095,47.473538 -200.4697,45.784791 -200.22845,43.786042 -199.98845,41.814787 -199.20095,40.153543 -197.91095,38.796036 -196.61095,37.47104 -195.09345,36.817286 -193.36345,36.817286 L -192.02595,36.817286 C -190.71095,36.817286 -189.6322,37.22729 -188.8247,38.097288 -187.9922,38.962291 -187.66095,40.052292 -187.8197,41.331036 -187.9697,42.609789 -188.56095,43.664792 -189.53845,44.496042 -190.53845,45.326044 -191.6847,45.728543 -192.9922,45.728543 L -196.9347,45.728543 C -196.84345,46.182291 -196.68095,46.578543 -196.4572,46.911042 -196.0172,47.589791 -195.55345,48.031037 -194.72345,48.031037 -193.24845,48.031037 -192.6372,47.892287 -191.5022,47.892287 -191.04845,47.892287 -190.72595,48.238537 -190.77845,48.698542 L -191.0072,50.569794 C -191.0072,50.569794 -193.3222,50.873539 -194.98345,50.873539"/>
      <path inkscape:connector-curvature="0" id="path10200"
            style="fill:#37378d;fill-opacity:1;fill-rule:evenodd;stroke:none"
            d="M -234.13758,39.638417 C -234.84383,39.613421 -235.55633,39.974663 -236.22882,40.738413 -236.94883,41.549666 -237.13883,42.594664 -237.29383,43.905918 -237.45383,45.220921 -237.51508,46.235917 -237.02258,46.969664 -236.56883,47.663414 -235.99008,48.000919 -235.24133,48.000919 L -235.09633,48.000919 C -234.33133,48.000919 -233.62758,47.652171 -232.96758,46.915914 -232.26133,46.138413 -232.07508,45.094664 -231.91633,43.785917 -231.75007,42.470916 -231.69258,41.448414 -232.18633,40.679667 -232.64758,39.954664 -233.23883,39.612162 -233.94508,39.638417 L -234.13758,39.638417 z M -235.50133,50.874664 C -237.20883,50.843413 -238.60757,50.190918 -239.60883,48.817169 -240.61008,47.473413 -240.67633,45.784667 -240.43883,43.785917 -240.19633,41.814663 -239.71883,40.153419 -238.42133,38.795912 -237.13132,37.470916 -235.61383,36.817162 -233.88133,36.817162 L -233.73758,36.817162 C -231.99758,36.817162 -230.59633,37.482168 -229.58633,38.862164 -228.60633,40.250914 -228.53633,41.937163 -228.77508,43.905918 -229.01633,45.908416 -229.49257,47.564671 -230.78133,48.867171 -232.07883,50.197164 -233.59258,50.843413 -235.30508,50.874664 L -235.50133,50.874664 z"/>
      <path inkscape:connector-curvature="0" id="path10202"
            style="fill:#37378d;fill-opacity:1;fill-rule:evenodd;stroke:none"
            d="M -171.5882,42.899163 -163.81444,42.880413 C -162.48695,42.880413 -161.23944,41.792909 -161.23944,40.481664 -161.23944,37.845413 -164.9007,35.851662 -167.97944,35.851662 -172.36819,35.851662 -175.78069,39.717914 -175.92445,43.215411 -175.92445,43.427908 -175.90695,43.684161 -175.85695,44.321663 -175.85695,44.321663 -174.59194,43.104164 -171.5882,42.899163 M -158.42069,39.674161 C -158.56069,40.820409 -159.00069,42.086661 -159.51694,42.807914 -160.77945,44.546663 -162.44445,45.571663 -164.37319,45.571663 L -171.1807,45.571663 C -173.43319,45.571663 -174.29445,46.304162 -174.29445,47.549164 -174.29445,48.176663 -173.92445,49.065411 -173.23944,49.752914 -172.0832,50.904162 -169.94319,51.969158 -167.84569,52.014162 -165.16195,52.060416 -162.57194,50.891659 -160.92944,49.004166 -160.68319,48.674166 -160.26695,48.465416 -159.85195,48.699162 -159.42319,48.951666 -159.4057,49.466659 -159.59194,49.854166 -161.42194,52.954161 -164.7282,54.871666 -168.5282,54.802916 -174.46195,54.700414 -179.2032,49.742911 -179.09319,43.736661 -178.9957,37.73041 -174.09319,32.94417 -168.14695,33.045407 -162.9857,33.13917 -159.60945,36.276667 -158.4432,39.586661 L -158.42069,39.674161 z M -184.32319,42.482912 C -183.55569,33.600407 -175.80819,27.02667 -167.01945,27.804157 -158.23444,28.58417 -151.73694,36.41166 -152.50945,45.295412 -153.27569,54.176667 -161.01819,60.744163 -169.80569,59.975417 -178.59194,59.195416 -185.09195,51.364167 -184.32319,42.482912"/>
      <path inkscape:connector-curvature="0" id="path10204"
            style="fill:#37378d;fill-opacity:1;fill-rule:evenodd;stroke:none"
            d="M -240.3082,36.993545 -240.56071,39.094793 C -240.61321,39.551041 -241.01446,39.912293 -241.46696,39.912293 L -242.70071,39.912293 C -243.14695,39.912293 -243.5207,40.097296 -243.81196,40.379793 -244.1207,40.669796 -244.3382,41.058542 -244.39571,41.506044 L -245.40321,50.063546 C -245.46321,50.517294 -245.86071,50.873539 -246.31695,50.873539 L -248.78821,50.873539 -247.64946,41.391041 C -247.49446,40.117294 -246.89321,39.049789 -245.91945,38.218548 -244.9182,37.404797 -243.77195,36.993545 -242.47696,36.993545 L -240.3082,36.993545 z"/>
      <path inkscape:connector-curvature="0" id="path10206"
            style="fill:#37378d;fill-opacity:1;fill-rule:evenodd;stroke:none"
            d="M -217.8842,49.651416 C -218.88671,50.465167 -220.03296,50.873911 -221.33171,50.873911 L -222.85045,50.873911 C -224.16171,50.873911 -225.24046,50.463917 -226.0517,49.601414 -226.8842,48.730166 -227.2117,47.643912 -227.0567,46.363918 L -225.91421,36.993916 -223.53546,36.993916 C -223.03296,36.993916 -222.67171,37.430165 -222.7342,37.921412 L -223.7717,46.477663 C -223.81671,46.866419 -223.7692,47.237666 -223.4792,47.557662 -223.29296,47.756417 -222.96546,47.963917 -222.6567,47.963917 -222.02546,47.963917 -221.0967,47.968914 -221.0967,47.968914 -220.65421,47.968914 -220.28545,47.768919 -219.99045,47.486412 -219.68795,47.201416 -219.46295,46.813919 -219.41295,46.363918 L -218.4017,37.806418 C -218.34546,37.351411 -217.95545,36.993916 -217.50295,36.993916 L -214.99671,36.993916 -216.15545,46.477663 C -216.3117,47.753918 -216.9117,48.821413 -217.8842,49.651416"/>
    </g>
  </g>
</svg>
